<svg width="19" height="16" viewBox="0 0 19 16" xmlns="http://www.w3.org/2000/svg">
    <path d="M18.238.987c-.883.436-1.749.613-2.65.88-.99-1.124-2.457-1.186-3.867-.655-1.41.532-2.334 1.831-2.313 3.322v.889c-2.866.074-5.418-1.24-7.065-3.556 0 0-3.692 6.607 3.532 9.778-1.653 1.108-3.301 1.856-5.298 1.778 2.921 1.602 6.105 2.154 8.86 1.348 3.162-.924 5.76-3.31 6.757-6.882a12.38 12.38 0 0 0 .438-3.336c-.001-.22 1.334-2.464 1.606-3.567v.001z" stroke="#818181" fill="none" fill-rule="evenodd" stroke-linecap="round" stroke-linejoin="round"/>
</svg>
