<svg width="154" height="37" viewBox="0 0 154 37" xmlns="http://www.w3.org/2000/svg">
    <g fill="#818181" fill-rule="nonzero">
        <path d="M24.585 23.038V0h-1.459L12.462 19.13 2.382 0H0v23.038h1.131v-20l10.458 20h.233L21.932 4.35v18.688zM72.23 11.99c2.476-1.166 3.874-3.225 3.874-5.762 0-3.382-1.806-6.228-7.72-6.228h-4.767v23.038h2.785v-9.94c1.131.03 2.301-.058 3.35-.262 2.768 3.295 5.857 7.174 7.838 8.544 1.282.933 2.375 1.487 4.006 1.487.496 0 .954-.029 1.479-.116l.113-.584c-1.311-.379-2.683-1.516-3.819-2.536-2.01-1.808-6.003-6.328-7.14-7.64zm-5.828.233V1.263h1.282c3.118 0 5.798 1.85 5.798 5.524 0 3.441-2.032 5.495-7.08 5.436zM89.987 0h2.524v23.038h-2.524zM106.305 0h-2.524v23.038h11.88v-1.263h-9.356zM134.328 21.775h-8.05V12.15h5.961v-1.264h-5.962V1.263h8.05V0h-10.573v23.038h10.574zM153.3 21.775h-7.79V12.15h5.701v-1.264h-5.7V1.263h7.789V0h-10.574v23.038H153.3z"/>
        <g>
            <path d="M4.208 35.362 1 29.482H0v7.365h.61v-5.928l3.25 5.928h.197l3.123-5.533v5.533h1.045v-7.364H7.6zM15.985 29.398h-.212L12.7 36.846h.671l1.133-2.777h2.298l1.142 2.777h1.133l-3.067-7.379-.025-.069zm.575 4.124h-1.825l.909-2.212.916 2.212zM34.467 36.847h3.655v-.59h-2.611v-2.819h1.915v-.547h-1.915v-2.862h2.611v-.546h-3.655zM43.692 29.483h-1.044v7.364h4.004v-.59h-2.96zM51.047 29.483h1.045v7.364h-1.045zM63.537 35.097l-5.23-5.614h-.993v7.364h.61V30.6l5.946 6.246h.276v-7.364h-.61zM69.281 36.847h3.612v-.59h-2.567v-2.819h1.915v-.547h-1.915v-2.862h2.567v-.546h-3.612zM89.605 36.085a4.167 4.167 0 0 1-1.232.209c-1.674 0-3.364-1.025-3.364-3.316 0-1.928 1.102-3.078 2.947-3.078.879 0 1.514.253 2.101.82l.156.167v-.963l-.027-.029c-.6-.402-1.28-.574-2.296-.574-1.903 0-3.947 1.272-3.947 4.067 0 .95.395 1.85 1.11 2.533A3.908 3.908 0 0 0 87.731 37h.035c1.2-.012 2.113-.377 2.828-1.117l.01-.028v-2.502h-1.002v2.732h.002zM97.903 29.398l-3.072 7.448h.67l1.133-2.777h2.298l1.142 2.777h1.133l-3.092-7.448h-.212zm.787 4.124h-1.825l.91-2.212.915 2.212zM110.838 35.643c-.586-.51-1.727-1.743-2.218-2.287.761-.39 1.195-1.046 1.195-1.83 0-.937-.452-2.044-2.603-2.044h-1.637v7.364h1.045V33.77c.348 0 .672-.022.97-.074l.308.351c.813.941 1.655 1.914 2.226 2.296.425.299.802.484 1.363.484.182 0 .335-.012.498-.038l.069-.011.07-.337-.09-.025c-.396-.11-.827-.453-1.196-.773zm-4.218-5.614h.363c.851.042 1.762.483 1.762 1.65 0 .477-.146.854-.422 1.116-.343.33-.92.5-1.703.505v-3.27zM133.602 35.097l-5.203-5.59-.02-.024h-1v7.364h.609V30.6l5.955 6.246h.268v-7.364h-.61zM139.346 36.847h3.656v-.59h-2.611v-2.819h1.914v-.547h-1.914v-2.862H143v-.546h-3.655zM153.911 36.416c-.398-.11-.828-.453-1.197-.773-.586-.51-1.727-1.743-2.218-2.287.761-.39 1.195-1.046 1.195-1.83 0-.937-.452-2.044-2.603-2.044h-1.648v7.364h1.044V33.77c.348 0 .678-.022.977-.074l.31.351c.813.941 1.657 1.914 2.227 2.296.425.299.803.484 1.364.484.182 0 .335-.012.499-.038l.07-.011.069-.337-.089-.025zm-5.426-6.387h.374c.851.042 1.762.483 1.762 1.65 0 .477-.153.854-.427 1.116-.344.33-.925.5-1.709.505v-3.27zM25.093 29.483h-1.637v7.364h1.54c3.238 0 5.02-1.398 5.02-3.938 0-3.04-2.632-3.426-4.923-3.426zm-.055 6.732H24.5v-6.101h.612c1.833 0 3.938.245 3.938 2.832 0 2.163-1.425 3.269-4.013 3.269zM117.806 29.483H116.151v7.364h1.559c3.237 0 5.019-1.398 5.019-3.938 0-3.04-2.632-3.426-4.923-3.426zm-.055 6.732h-.556v-6.101h.631c1.833 0 3.938.245 3.938 2.832 0 2.163-1.425 3.269-4.013 3.269z"/>
        </g>
        <g>
            <path d="M34.53 11.856c.63 7.571 6.013 11.082 10.933 10.682 5.198-.422 8.727-4.418 8.207-10.658C53.04 4.31 47.62.8 42.737 1.198c-5.195.422-8.727 4.418-8.208 10.658zM44.403 0C51.71 0 56.7 5.494 56.7 11.48c0 5.812-5.345 12.256-12.937 12.256-7.273 0-12.263-5.495-12.263-11.516C31.5 6.444 36.848 0 44.404 0z"/>
        </g>
    </g>
</svg>
